<svg width="670" height="319" viewBox="0 0 670 319" fill="none" xmlns="http://www.w3.org/2000/svg">
<path d="M121.777 239.507C119.528 239.507 117.504 238.72 115.705 237.145C114.131 235.571 113.344 233.547 113.344 231.073V192.955H8.43333C6.18444 192.955 4.16044 192.168 2.36133 190.593C0.787111 189.019 0 186.995 0 184.521V152.475C0 150.451 0.337333 148.652 1.012 147.077C1.91156 145.278 2.81111 143.592 3.71067 142.017L101.875 9.108C104.798 5.28489 108.959 3.37333 114.356 3.37333H163.269C165.743 3.37333 167.767 4.16044 169.341 5.73467C171.14 7.30889 172.04 9.33289 172.04 11.8067V142.692H201.725C204.424 142.692 206.56 143.592 208.135 145.391C209.709 146.965 210.496 148.876 210.496 151.125V184.521C210.496 186.995 209.596 189.019 207.797 190.593C206.223 192.168 204.312 192.955 202.063 192.955H172.04V231.073C172.04 233.547 171.14 235.571 169.341 237.145C167.767 238.72 165.743 239.507 163.269 239.507H121.777ZM58.0213 145.053H114.693V65.4427L58.0213 145.053Z" fill="#F4656E"/>
<path d="M334.851 242.88C318.659 242.88 304.603 240.631 292.684 236.133C280.765 231.411 270.87 225.001 262.999 216.905C255.353 208.809 249.505 199.364 245.457 188.569C241.409 177.775 239.048 166.193 238.373 153.824C238.149 147.752 237.924 140.893 237.699 133.247C237.699 125.376 237.699 117.504 237.699 109.633C237.924 101.537 238.149 94.3409 238.373 88.044C239.048 75.6751 241.409 64.2058 245.457 53.636C249.73 42.8413 255.802 33.5084 263.673 25.6373C271.769 17.5413 281.665 11.2444 293.359 6.74666C305.278 2.24889 319.109 0 334.851 0C350.818 0 364.649 2.24889 376.343 6.74666C388.037 11.2444 397.82 17.5413 405.691 25.6373C413.787 33.5084 419.971 42.8413 424.244 53.636C428.517 64.2058 430.878 75.6751 431.328 88.044C431.778 94.3409 432.003 101.537 432.003 109.633C432.228 117.504 432.228 125.376 432.003 133.247C432.003 140.893 431.778 147.752 431.328 153.824C430.878 166.193 428.517 177.775 424.244 188.569C420.196 199.364 414.237 208.809 406.365 216.905C398.719 225.001 388.937 231.411 377.017 236.133C365.323 240.631 351.268 242.88 334.851 242.88ZM334.851 193.967C346.545 193.967 354.978 190.256 360.151 182.835C365.548 175.188 368.359 164.956 368.584 152.137C369.034 145.616 369.259 138.756 369.259 131.56C369.484 124.364 369.484 117.167 369.259 109.971C369.259 102.774 369.034 96.14 368.584 90.068C368.359 77.6991 365.548 67.6916 360.151 60.0453C354.978 52.3991 346.545 48.4636 334.851 48.2387C323.157 48.4636 314.723 52.3991 309.551 60.0453C304.378 67.6916 301.567 77.6991 301.117 90.068C300.893 96.14 300.668 102.774 300.443 109.971C300.443 117.167 300.443 124.364 300.443 131.56C300.668 138.756 300.893 145.616 301.117 152.137C301.567 164.956 304.491 175.188 309.888 182.835C315.285 190.256 323.606 193.967 334.851 193.967Z" fill="#F4656E"/>
<path d="M580.999 239.507C578.75 239.507 576.726 238.72 574.927 237.145C573.352 235.571 572.565 233.547 572.565 231.073V192.955H467.655C465.406 192.955 463.382 192.168 461.583 190.593C460.008 189.019 459.221 186.995 459.221 184.521V152.475C459.221 150.451 459.559 148.652 460.233 147.077C461.133 145.278 462.033 143.592 462.932 142.017L561.096 9.108C564.02 5.28489 568.18 3.37333 573.577 3.37333H622.491C624.964 3.37333 626.988 4.16044 628.563 5.73467C630.362 7.30889 631.261 9.33289 631.261 11.8067V142.692H660.947C663.645 142.692 665.782 143.592 667.356 145.391C668.93 146.965 669.717 148.876 669.717 151.125V184.521C669.717 186.995 668.818 189.019 667.019 190.593C665.445 192.168 663.533 192.955 661.284 192.955H631.261V231.073C631.261 233.547 630.362 235.571 628.563 237.145C626.988 238.72 624.964 239.507 622.491 239.507H580.999ZM517.243 145.053H573.915V65.4427L517.243 145.053Z" fill="#F4656E"/>
<path d="M265.919 310.88C265.719 310.88 265.549 310.81 265.409 310.67C265.269 310.53 265.199 310.36 265.199 310.16V290.63C265.199 290.41 265.269 290.23 265.409 290.09C265.549 289.95 265.719 289.88 265.919 289.88H268.229C268.509 289.88 268.709 289.95 268.829 290.09C268.969 290.21 269.059 290.3 269.099 290.36L277.739 303.8V290.63C277.739 290.41 277.799 290.23 277.919 290.09C278.059 289.95 278.239 289.88 278.459 289.88H280.979C281.199 289.88 281.379 289.95 281.519 290.09C281.659 290.23 281.729 290.41 281.729 290.63V310.13C281.729 310.35 281.659 310.53 281.519 310.67C281.379 310.81 281.209 310.88 281.009 310.88H278.669C278.389 310.88 278.189 310.81 278.069 310.67C277.949 310.53 277.859 310.44 277.799 310.4L269.189 297.26V310.16C269.189 310.36 269.119 310.53 268.979 310.67C268.839 310.81 268.659 310.88 268.439 310.88H265.919ZM292.95 311.18C291.35 311.18 290 310.9 288.9 310.34C287.82 309.78 286.99 308.99 286.41 307.97C285.85 306.95 285.53 305.76 285.45 304.4C285.43 304.04 285.42 303.6 285.42 303.08C285.42 302.56 285.43 302.12 285.45 301.76C285.53 300.38 285.86 299.19 286.44 298.19C287.04 297.17 287.88 296.38 288.96 295.82C290.06 295.26 291.39 294.98 292.95 294.98C294.51 294.98 295.83 295.26 296.91 295.82C298.01 296.38 298.85 297.17 299.43 298.19C300.03 299.19 300.37 300.38 300.45 301.76C300.47 302.12 300.48 302.56 300.48 303.08C300.48 303.6 300.47 304.04 300.45 304.4C300.37 305.76 300.04 306.95 299.46 307.97C298.9 308.99 298.07 309.78 296.97 310.34C295.89 310.9 294.55 311.18 292.95 311.18ZM292.95 308.21C294.01 308.21 294.83 307.88 295.41 307.22C295.99 306.54 296.31 305.55 296.37 304.25C296.39 303.95 296.4 303.56 296.4 303.08C296.4 302.6 296.39 302.21 296.37 301.91C296.31 300.63 295.99 299.65 295.41 298.97C294.83 298.29 294.01 297.95 292.95 297.95C291.89 297.95 291.07 298.29 290.49 298.97C289.91 299.65 289.59 300.63 289.53 301.91C289.51 302.21 289.5 302.6 289.5 303.08C289.5 303.56 289.51 303.95 289.53 304.25C289.59 305.55 289.91 306.54 290.49 307.22C291.07 307.88 291.89 308.21 292.95 308.21ZM310.736 310.88C309.536 310.88 308.526 310.67 307.706 310.25C306.886 309.83 306.276 309.21 305.876 308.39C305.476 307.55 305.276 306.51 305.276 305.27V298.46H302.906C302.706 298.46 302.536 298.39 302.396 298.25C302.256 298.11 302.186 297.94 302.186 297.74V296C302.186 295.8 302.256 295.63 302.396 295.49C302.536 295.35 302.706 295.28 302.906 295.28H305.276V290.3C305.276 290.1 305.336 289.93 305.456 289.79C305.596 289.65 305.776 289.58 305.996 289.58H308.426C308.626 289.58 308.796 289.65 308.936 289.79C309.076 289.93 309.146 290.1 309.146 290.3V295.28H312.896C313.096 295.28 313.266 295.35 313.406 295.49C313.546 295.63 313.616 295.8 313.616 296V297.74C313.616 297.94 313.546 298.11 313.406 298.25C313.266 298.39 313.096 298.46 312.896 298.46H309.146V304.97C309.146 305.79 309.286 306.43 309.566 306.89C309.866 307.35 310.376 307.58 311.096 307.58H313.166C313.366 307.58 313.536 307.65 313.676 307.79C313.816 307.93 313.886 308.1 313.886 308.3V310.16C313.886 310.36 313.816 310.53 313.676 310.67C313.536 310.81 313.366 310.88 313.166 310.88H310.736ZM325.276 310.88C325.076 310.88 324.906 310.81 324.766 310.67C324.626 310.53 324.556 310.36 324.556 310.16V298.46H322.126C321.926 298.46 321.756 298.39 321.616 298.25C321.476 298.11 321.406 297.94 321.406 297.74V296C321.406 295.8 321.476 295.63 321.616 295.49C321.756 295.35 321.926 295.28 322.126 295.28H324.556V294.05C324.556 292.85 324.776 291.86 325.216 291.08C325.656 290.28 326.306 289.68 327.166 289.28C328.026 288.88 329.116 288.68 330.436 288.68H332.476C332.696 288.68 332.866 288.75 332.986 288.89C333.126 289.03 333.196 289.2 333.196 289.4V291.14C333.196 291.34 333.126 291.51 332.986 291.65C332.866 291.79 332.696 291.86 332.476 291.86H330.556C329.756 291.86 329.206 292.06 328.906 292.46C328.606 292.86 328.456 293.44 328.456 294.2V295.28H332.176C332.396 295.28 332.566 295.35 332.686 295.49C332.826 295.63 332.896 295.8 332.896 296V297.74C332.896 297.94 332.826 298.11 332.686 298.25C332.566 298.39 332.396 298.46 332.176 298.46H328.456V310.16C328.456 310.36 328.386 310.53 328.246 310.67C328.106 310.81 327.936 310.88 327.736 310.88H325.276ZM341.963 311.18C340.363 311.18 339.013 310.9 337.913 310.34C336.833 309.78 336.003 308.99 335.423 307.97C334.863 306.95 334.543 305.76 334.463 304.4C334.443 304.04 334.433 303.6 334.433 303.08C334.433 302.56 334.443 302.12 334.463 301.76C334.543 300.38 334.873 299.19 335.453 298.19C336.053 297.17 336.893 296.38 337.973 295.82C339.073 295.26 340.403 294.98 341.963 294.98C343.523 294.98 344.843 295.26 345.923 295.82C347.023 296.38 347.863 297.17 348.443 298.19C349.043 299.19 349.383 300.38 349.463 301.76C349.483 302.12 349.493 302.56 349.493 303.08C349.493 303.6 349.483 304.04 349.463 304.4C349.383 305.76 349.053 306.95 348.473 307.97C347.913 308.99 347.083 309.78 345.983 310.34C344.903 310.9 343.563 311.18 341.963 311.18ZM341.963 308.21C343.023 308.21 343.843 307.88 344.423 307.22C345.003 306.54 345.323 305.55 345.383 304.25C345.403 303.95 345.413 303.56 345.413 303.08C345.413 302.6 345.403 302.21 345.383 301.91C345.323 300.63 345.003 299.65 344.423 298.97C343.843 298.29 343.023 297.95 341.963 297.95C340.903 297.95 340.083 298.29 339.503 298.97C338.923 299.65 338.603 300.63 338.543 301.91C338.523 302.21 338.513 302.6 338.513 303.08C338.513 303.56 338.523 303.95 338.543 304.25C338.603 305.55 338.923 306.54 339.503 307.22C340.083 307.88 340.903 308.21 341.963 308.21ZM358.607 311.18C357.387 311.18 356.327 310.91 355.427 310.37C354.547 309.81 353.867 309.03 353.387 308.03C352.907 307.01 352.667 305.81 352.667 304.43V296C352.667 295.8 352.737 295.63 352.877 295.49C353.017 295.35 353.187 295.28 353.387 295.28H356.027C356.247 295.28 356.417 295.35 356.537 295.49C356.677 295.63 356.747 295.8 356.747 296V304.25C356.747 306.73 357.837 307.97 360.017 307.97C361.057 307.97 361.877 307.64 362.477 306.98C363.097 306.32 363.407 305.41 363.407 304.25V296C363.407 295.8 363.477 295.63 363.617 295.49C363.757 295.35 363.927 295.28 364.127 295.28H366.767C366.967 295.28 367.137 295.35 367.277 295.49C367.417 295.63 367.487 295.8 367.487 296V310.16C367.487 310.36 367.417 310.53 367.277 310.67C367.137 310.81 366.967 310.88 366.767 310.88H364.337C364.117 310.88 363.937 310.81 363.797 310.67C363.677 310.53 363.617 310.36 363.617 310.16V308.93C363.077 309.63 362.407 310.18 361.607 310.58C360.807 310.98 359.807 311.18 358.607 311.18ZM372.17 310.88C371.97 310.88 371.8 310.81 371.66 310.67C371.52 310.53 371.45 310.36 371.45 310.16V296C371.45 295.8 371.52 295.63 371.66 295.49C371.8 295.35 371.97 295.28 372.17 295.28H374.63C374.83 295.28 375 295.35 375.14 295.49C375.28 295.63 375.35 295.8 375.35 296V297.23C375.87 296.59 376.53 296.06 377.33 295.64C378.15 295.2 379.16 294.98 380.36 294.98C381.58 294.98 382.64 295.26 383.54 295.82C384.44 296.36 385.13 297.13 385.61 298.13C386.11 299.13 386.36 300.33 386.36 301.73V310.16C386.36 310.36 386.29 310.53 386.15 310.67C386.01 310.81 385.84 310.88 385.64 310.88H383C382.8 310.88 382.63 310.81 382.49 310.67C382.35 310.53 382.28 310.36 382.28 310.16V301.91C382.28 300.75 381.99 299.84 381.41 299.18C380.85 298.52 380.03 298.19 378.95 298.19C377.91 298.19 377.08 298.52 376.46 299.18C375.84 299.84 375.53 300.75 375.53 301.91V310.16C375.53 310.36 375.46 310.53 375.32 310.67C375.18 310.81 375.01 310.88 374.81 310.88H372.17ZM395.961 311.18C394.921 311.18 394.001 311.01 393.201 310.67C392.421 310.31 391.771 309.81 391.251 309.17C390.731 308.53 390.331 307.78 390.051 306.92C389.771 306.04 389.611 305.08 389.571 304.04C389.551 303.68 389.541 303.36 389.541 303.08C389.541 302.78 389.551 302.45 389.571 302.09C389.611 301.09 389.761 300.16 390.021 299.3C390.301 298.44 390.701 297.69 391.221 297.05C391.761 296.39 392.421 295.88 393.201 295.52C394.001 295.16 394.921 294.98 395.961 294.98C397.041 294.98 397.951 295.17 398.691 295.55C399.451 295.91 400.081 296.38 400.581 296.96V290.3C400.581 290.1 400.641 289.93 400.761 289.79C400.901 289.65 401.081 289.58 401.301 289.58H403.851C404.051 289.58 404.221 289.65 404.361 289.79C404.501 289.93 404.571 290.1 404.571 290.3V310.16C404.571 310.36 404.501 310.53 404.361 310.67C404.221 310.81 404.051 310.88 403.851 310.88H401.481C401.261 310.88 401.081 310.81 400.941 310.67C400.821 310.53 400.761 310.36 400.761 310.16V309.05C400.261 309.67 399.621 310.18 398.841 310.58C398.081 310.98 397.121 311.18 395.961 311.18ZM397.071 307.97C397.911 307.97 398.581 307.78 399.081 307.4C399.581 307.02 399.951 306.54 400.191 305.96C400.431 305.36 400.561 304.75 400.581 304.13C400.601 303.77 400.611 303.39 400.611 302.99C400.611 302.57 400.601 302.18 400.581 301.82C400.561 301.22 400.421 300.65 400.161 300.11C399.901 299.55 399.521 299.09 399.021 298.73C398.521 298.37 397.871 298.19 397.071 298.19C396.231 298.19 395.561 298.38 395.061 298.76C394.581 299.12 394.231 299.6 394.011 300.2C393.791 300.8 393.661 301.46 393.621 302.18C393.601 302.78 393.601 303.38 393.621 303.98C393.661 304.7 393.791 305.36 394.011 305.96C394.231 306.56 394.581 307.05 395.061 307.43C395.561 307.79 396.231 307.97 397.071 307.97Z" fill="#F4656E"/>
</svg>
